PathFileType	4	(X/Y/Z)	E:\3-PhD\Data\MocapData\ElaboratedData\009\pre\dynamicElaborations\RunA3\RunA3.trc
DataRate	CameraRate	NumFrames	NumMarkers	Units	OrigDataRate	DataStartFrame
200	200	4	54	mm	200	570
Frame#	Time	FHD			LBHD			RBHD			C7			T10			CLAV			LSHO			LUUPA			LMUPA			LDUPA			LLEP			LMEP			LRAD			LUL			LRFIN			RSHO			RUPA1			RMUPA			RDUPA			RLEP			RMEP			RRAD			RUL			RUFIN			RASI			USACR			LSACR			RSACR			LTHI1			LTHI2			LTHI3			LTHI4			LTIB1			LTIB2			LTIB3			LTIB4			LLMAL			LHEE			LMT1			LMT2			RTHI			RTHI2			RTHI3			RTHI4			RLFC			RTIB1			RTIB2			RTIB3			RTIB4			RLMAL			RHEE			RMT1			RMT2			RMT5		
		X1	Y1	Z1	X2	Y2	Z2	X3	Y3	Z3	X4	Y4	Z4	X5	Y5	Z5	X6	Y6	Z6	X7	Y7	Z7	X8	Y8	Z8	X9	Y9	Z9	X10	Y10	Z10	X11	Y11	Z11	X12	Y12	Z12	X13	Y13	Z13	X14	Y14	Z14	X15	Y15	Z15	X16	Y16	Z16	X17	Y17	Z17	X18	Y18	Z18	X19	Y19	Z19	X20	Y20	Z20	X21	Y21	Z21	X22	Y22	Z22	X23	Y23	Z23	X24	Y24	Z24	X25	Y25	Z25	X26	Y26	Z26	X27	Y27	Z27	X28	Y28	Z28	X29	Y29	Z29	X30	Y30	Z30	X31	Y31	Z31	X32	Y32	Z32	X33	Y33	Z33	X34	Y34	Z34	X35	Y35	Z35	X36	Y36	Z36	X37	Y37	Z37	X38	Y38	Z38	X39	Y39	Z39	X40	Y40	Z40	X41	Y41	Z41	X42	Y42	Z42	X43	Y43	Z43	X44	Y44	Z44	X45	Y45	Z45	X46	Y46	Z46	X47	Y47	Z47	X48	Y48	Z48	X49	Y49	Z49	X50	Y50	Z50	X51	Y51	Z51	X52	Y52	Z52	X53	Y53	Z53	X54	Y54	Z54	

583	2.910000	-567.252695	1370.956957	623.405483	-695.246591	1389.373455	475.092969	-712.746890	1364.799424	600.960187	-778.771892	1273.883149	534.364927	-1011.139726	1009.032578	553.565672	-706.607414	1128.004648	523.880342	-726.093340	1211.959786	393.595628	-747.425858	1060.228257	271.008865	-702.828974	1046.206179	275.306223	-725.394294	1000.638584	243.664492	-684.062406	890.191044	217.303733	-702.724119	846.860341	275.208376	-486.348603	961.261342	362.796310	-447.695033	911.019235	324.173610	-434.819532	1012.115144	344.940497	-699.895313	1180.660522	692.384920	-831.503378	1095.443471	798.040763	-849.601907	1053.665883	778.497491	-886.276948	1065.170417	825.894882	-1005.301366	1017.643553	865.432604	-1048.489560	1043.036782	812.697402	-1089.390703	769.781998	834.632223	-1139.411009	793.043048	880.538076	-1082.371293	707.728923	885.033937	-893.754201	773.715209	636.195086	-1055.303414	903.569354	539.849603	-1058.293316	880.550041	504.685341	-1063.375272	865.436000	561.137355	-807.784230	676.857531	278.050834	-734.701666	634.773318	269.131495	-698.263809	655.041409	293.606311	-726.139460	575.250909	256.460509	-618.993622	320.237902	209.814556	-675.214945	317.694794	142.710626	-644.066373	295.625987	164.020478	-668.887513	214.002425	157.796970	-753.597785	103.763432	73.644269	-841.750650	57.439451	75.495442	-632.917590	53.361811	151.538743	-616.754807	56.504509	106.843903	-844.842787	569.422706	695.028372	-785.396331	555.238946	717.105758	-761.538856	579.696847	724.594965	-739.579787	485.894175	695.890670	-660.441685	429.517526	680.130296	-713.336097	335.023597	508.803171	-822.661872	334.999038	496.388916	-786.432119	312.288032	476.911854	-792.539028	299.349294	421.022600	-901.106773	291.874703	387.573138	-955.274909	333.375005	313.265525	-775.683801	193.200903	317.196157	-794.296912	177.212640	349.998469	-860.691109	167.464727	375.736737	
584	2.915000	-545.327298	1366.541285	630.541547	-670.881946	1384.979115	480.317838	-690.427934	1360.747112	605.861040	-755.623995	1270.159900	538.685792	-989.704065	1006.825186	559.716660	-684.213631	1122.933739	530.035338	-698.773117	1205.924468	399.053116	-711.291379	1053.250078	278.356535	-666.779393	1040.144716	285.127445	-686.512454	993.717458	252.940353	-641.523148	883.480243	230.064199	-660.445592	840.348502	287.749977	-452.633995	964.276888	380.842364	-410.882115	915.033359	344.144353	-402.633919	1016.772968	364.012813	-678.052469	1176.609668	698.382730	-812.098653	1093.041733	802.760714	-830.540970	1051.356104	783.012794	-867.520715	1063.468742	830.097299	-987.393049	1017.514561	868.156066	-1029.703608	1043.833392	815.235078	-1079.988786	772.774276	838.924185	-1129.294996	797.932299	884.550000	-1075.206231	710.841105	889.666539	-870.621542	771.202002	639.721563	-1034.391763	900.918733	546.858462	-1037.926087	878.018111	511.764984	-1042.017761	862.743044	568.256249	-791.369201	673.781448	279.751150	-718.807561	631.075908	269.508865	-681.574653	651.190172	292.958513	-711.001372	571.476520	256.751102	-609.660415	316.061236	207.772771	-667.067255	315.381789	141.690081	-636.130105	292.408789	162.218998	-663.968572	211.533312	156.572480	-752.967851	104.043431	73.931012	-842.005334	58.329002	76.438867	-632.909482	53.491127	151.260298	-616.913778	56.512149	106.470998	-820.913041	570.524621	701.328143	-761.312418	558.027119	723.955367	-738.265013	583.212959	731.597587	-713.350893	489.969496	703.327206	-632.162392	435.699080	688.555396	-676.988180	336.065902	517.605238	-785.897529	331.349544	502.150131	-747.977284	309.770444	483.595295	-751.956266	295.617108	427.949026	-859.582032	283.189417	392.221661	-913.210119	320.912904	315.627280	-727.894399	189.046777	326.941370	-746.884489	172.825733	359.456083	-813.434397	160.560180	383.623627	
585	2.920000	-523.531347	1362.671156	638.000733	-646.807991	1381.148979	486.034809	-668.232232	1357.210745	611.244605	-732.498583	1266.954324	543.458690	-968.228500	1004.901800	566.075756	-661.922681	1118.443378	536.648525	-671.311632	1200.563985	405.344650	-675.392036	1047.430055	286.712539	-631.110737	1035.120688	295.827448	-648.201603	988.012328	263.158776	-599.919963	878.049090	243.660856	-619.177742	835.079919	301.021475	-419.839249	967.933457	398.995290	-375.212039	919.764073	364.217107	-371.431782	1021.949284	382.996241	-656.594639	1173.285759	704.774638	-793.128313	1091.881909	808.022811	-811.681572	1050.134169	788.443400	-849.268302	1063.142596	834.778142	-969.848363	1018.372211	871.340078	-1011.198821	1045.452558	818.118456	-1069.530700	776.584548	842.791187	-1118.289739	803.295159	888.092146	-1066.811901	714.706406	893.712419	-847.523130	769.185868	643.584211	-1013.394481	898.699585	553.983213	-1017.442752	875.879879	518.979589	-1020.598590	860.502017	575.509578	-774.984523	671.471216	281.862669	-702.991084	628.150399	270.325609	-665.106210	647.894766	293.085821	-695.968047	568.546943	257.187995	-600.919047	312.055269	205.763473	-659.448808	313.172022	140.732191	-628.802462	289.325576	160.644855	-659.332770	209.277852	155.468458	-752.340951	104.551488	74.458803	-842.192019	59.523971	77.711785	-632.782640	53.517660	151.078626	-617.012956	56.470314	106.156113	-797.158482	571.934813	707.726599	-737.425754	561.100852	730.810891	-715.169091	586.998898	738.529017	-687.424923	494.357797	710.728303	-604.248350	442.145934	696.832810	-640.589327	337.168855	526.788788	-748.836576	327.570027	508.230112	-709.171663	307.177447	490.543222	-711.098523	291.950830	435.313540	-817.392742	274.207440	397.460606	-870.276623	307.937241	318.584823	-679.694447	184.952562	337.591733	-699.006012	168.542049	369.856863	-765.553062	153.705980	392.492432	
586	2.925000	-501.832573	1359.379492	645.794703	-623.006530	1377.909822	492.251305	-646.132058	1354.205345	617.125537	-709.381865	1264.262151	548.688839	-946.678194	1003.280384	572.590702	-639.692942	1114.591435	543.753989	-643.787600	1195.960150	412.478464	-639.900672	1042.767212	296.023059	-595.962838	1031.137122	307.322564	-610.640646	983.500278	274.242010	-559.404869	873.887958	257.959794	-579.057101	831.053682	314.877612	-387.998093	972.210766	417.204010	-340.705940	925.191088	384.295756	-341.222323	1027.631319	401.850987	-635.504141	1170.712732	711.584578	-774.534035	1091.895964	813.809954	-793.043092	1049.966778	794.690177	-831.443256	1064.106992	839.930643	-952.646968	1020.249683	875.007161	-992.950822	1047.929673	821.380753	-1058.010297	781.123849	846.252506	-1106.394205	809.034964	891.221945	-1057.140758	719.201738	897.150064	-824.485152	767.667162	647.812865	-992.283911	896.917272	561.161948	-996.807046	874.152282	526.254535	-999.100564	858.713657	582.819599	-758.564938	669.831757	284.394871	-687.213469	625.866446	271.566506	-648.778090	645.027040	293.930923	-681.048163	566.316396	257.808616	-592.715402	308.172420	203.864644	-652.321564	311.038690	139.912145	-622.018504	286.345226	159.319836	-654.966108	207.183246	154.551940	-751.733584	105.255338	75.226445	-842.323477	60.995189	79.285411	-632.564031	53.441214	150.984278	-617.077129	56.385131	105.895181	-773.578924	573.619746	714.220807	-713.733952	564.409406	737.673742	-692.235640	590.994228	745.391903	-661.818220	498.979838	718.081954	-576.735998	448.753192	704.954872	-604.195487	338.360968	536.292323	-711.513750	323.715501	514.665850	-670.113328	304.576974	497.842440	-670.030840	288.423197	443.122441	-774.566718	265.069720	403.334539	-826.491348	294.651120	322.235654	-631.219127	181.042470	349.154700	-650.797064	164.477608	381.189234	-717.178439	147.045938	402.346637	
